<?xml version="1.0" encoding="iso-8859-1"?>
<!-- Generator: Adobe Illustrator 19.0.0, SVG Export Plug-In . SVG Version: 6.00 Build 0)  -->
<svg version="1.1" id="Layer_1" xmlns="http://www.w3.org/2000/svg" xmlns:xlink="http://www.w3.org/1999/xlink" x="0px" y="0px"
	 viewBox="0 0 512.001 512.001" style="enable-background:new 0 0 512.001 512.001;" xml:space="preserve">
<g>
	<g>
		<rect x="229.489" y="376.95" width="39.439" height="30.478"/>
	</g>
</g>
<g>
	<g>
		<rect x="87.442" y="154.807" width="130.344" height="30.478"/>
	</g>
</g>
<g>
	<g>
		<rect x="191.3" y="256.4" width="219.674" height="30.478"/>
	</g>
</g>
<g>
	<g>
		<rect x="87.442" y="256.4" width="73.381" height="30.478"/>
	</g>
</g>
<g>
	<g>
		<path d="M494.449,10.248c-13.666-13.665-35.903-13.663-49.567,0.001l-61.358,61.358H43.539c-19.98,0-36.236,16.256-36.236,36.236
			v230.41v30.478v41.155c0,19.98,16.255,36.236,36.236,36.236h125.548l-5.129,35.401h-26.418v30.478h22.002h179.332h22.002v-30.478
			h-26.418l-5.128-35.401h125.547c19.981,0,36.237-16.256,36.237-36.236v-71.633h-0.001V107.842
			c0-12.143-6.011-22.903-15.207-29.482l18.544-18.544C508.115,46.151,508.115,23.916,494.449,10.248z M426.625,71.606l0.838-0.838
			l6.466,6.466L305.557,205.607h-6.466v-6.466L426.625,71.606z M194.755,481.521l5.128-35.401h98.65l5.128,35.401H194.755z
			 M460.635,409.885c0,3.175-2.583,5.758-5.759,5.758H324.914H173.503H43.539c-3.175,0-5.758-2.583-5.758-5.758V368.73h422.854
			V409.885z M460.635,338.252H37.781v-230.41c0-3.175,2.582-5.758,5.758-5.758h309.506l-84.433,84.433v19.09H87.446v30.478h181.167
			h15.239h34.329l134.001-134.001h2.695c3.175,0,5.758,2.583,5.758,5.758V338.252z M472.899,38.265l-17.418,17.418l-6.466-6.466
			l17.418-17.418c1.783-1.782,4.683-1.781,6.465-0.001C474.681,33.582,474.682,36.482,472.899,38.265z"/>
	</g>
</g>
<g>
</g>
<g>
</g>
<g>
</g>
<g>
</g>
<g>
</g>
<g>
</g>
<g>
</g>
<g>
</g>
<g>
</g>
<g>
</g>
<g>
</g>
<g>
</g>
<g>
</g>
<g>
</g>
<g>
</g>
</svg>
